<svg width="150" height="22" viewBox="0 0 150 22" fill="none" xmlns="http://www.w3.org/2000/svg">
<g clip-path="url(#clip0_909_6670)">
<path d="M143.525 19.6181C142.412 19.6181 141.44 19.3568 140.61 18.8341C139.795 18.3114 139.168 17.5835 138.73 16.649C138.291 15.7144 138.072 14.6458 138.072 13.4432C138.072 12.2407 138.291 11.1705 138.73 10.2375C139.169 9.30294 139.805 8.57512 140.635 8.05241C141.465 7.5297 142.446 7.26835 143.574 7.26835C144.311 7.26835 144.992 7.41888 145.62 7.71993C146.261 8.00444 146.771 8.40143 147.147 8.9076V2.3291H150.016V19.4279H147.147V17.9326C146.787 18.4387 146.278 18.8506 145.62 19.1682C144.978 19.4693 144.28 19.6198 143.527 19.6198L143.525 19.6181ZM144.111 17.1005C145.082 17.1005 145.859 16.768 146.438 16.1031C147.018 15.4381 147.308 14.5515 147.308 13.4432C147.308 12.335 147.018 11.4483 146.438 10.7834C145.859 10.1184 145.082 9.78594 144.111 9.78594C143.14 9.78594 142.387 10.1184 141.807 10.7834C141.228 11.4483 140.938 12.335 140.938 13.4432C140.938 14.5515 141.228 15.4381 141.807 16.1031C142.387 16.768 143.155 17.1005 144.111 17.1005Z" fill="white"/>
<path d="M129.231 19.6182C127.898 19.6182 126.825 19.1831 126.01 18.3114C125.211 17.4248 124.811 16.2768 124.811 14.8675V7.45698H127.703V14.2489C127.703 15.0726 127.931 15.7458 128.384 16.2669C128.839 16.7731 129.434 17.0261 130.171 17.0261C130.986 17.0261 131.645 16.7416 132.146 16.171C132.663 15.6003 132.922 14.8725 132.922 13.9858V7.45532H135.791V19.4246H132.922V17.572C132.593 18.2204 132.106 18.7283 131.464 19.0922C130.822 19.4412 130.077 19.6149 129.231 19.6149V19.6182Z" fill="white"/>
<path d="M116.563 19.6181C115.372 19.6181 114.306 19.3567 113.365 18.834C112.425 18.2948 111.688 17.5603 111.154 16.6258C110.622 15.6763 110.355 14.616 110.355 13.4432C110.355 12.2704 110.622 11.2184 111.154 10.2838C111.688 9.33432 112.423 8.59824 113.365 8.07553C114.305 7.53794 115.371 7.26831 116.563 7.26831C117.755 7.26831 118.796 7.53794 119.736 8.07553C120.676 8.59824 121.413 9.33432 121.947 10.2838C122.481 11.2184 122.746 12.2704 122.746 13.4432C122.746 14.616 122.479 15.6763 121.947 16.6258C121.415 17.5603 120.678 18.2964 119.736 18.834C118.796 19.3567 117.738 19.6181 116.563 19.6181ZM116.563 17.1005C117.534 17.1005 118.318 16.7597 118.914 16.0799C119.525 15.3984 119.831 14.52 119.831 13.4432C119.831 12.3664 119.525 11.488 118.914 10.8065C118.318 10.125 117.535 9.7859 116.563 9.7859C115.59 9.7859 114.776 10.1267 114.165 10.8065C113.569 11.4715 113.271 12.3498 113.271 13.4432C113.271 14.5366 113.569 15.3984 114.165 16.0799C114.776 16.7614 115.575 17.1005 116.563 17.1005Z" fill="white"/>
<path d="M105.252 2.3291H108.144V19.4279H105.252V2.3291Z" fill="white"/>
<path d="M95.6511 19.6197C94.1314 19.6197 92.751 19.3038 91.513 18.6702C90.275 18.0218 89.2876 17.0558 88.5507 15.7722C87.8138 14.4902 87.4453 12.9453 87.4453 11.1406C87.4453 9.33593 87.8138 7.76781 88.5507 6.48586C89.3023 5.2039 90.2979 4.23789 91.5359 3.58781C92.7739 2.93939 94.1462 2.61353 95.6495 2.61353C96.9497 2.61353 98.1336 2.85834 99.1997 3.34962C100.266 3.84089 101.135 4.52901 101.81 5.41563C102.485 6.28571 102.891 7.28315 103.033 8.40796H99.7892C99.6631 7.48992 99.2095 6.74556 98.4251 6.17488C97.6407 5.6042 96.7008 5.31969 95.6036 5.31969C94.6325 5.31969 93.7614 5.54135 92.9933 5.98465C92.2417 6.42796 91.6456 7.08465 91.2068 7.95638C90.7826 8.82646 90.5714 9.88014 90.5714 11.1158C90.5714 12.3514 90.7826 13.4034 91.2068 14.2752C91.6456 15.1304 92.2417 15.7788 92.9933 16.2221C93.7614 16.6654 94.6391 16.8871 95.6265 16.8871C96.7401 16.8871 97.6882 16.6025 98.471 16.0319C99.2701 15.4612 99.7319 14.7251 99.858 13.8236H102.986C102.876 14.9484 102.491 15.9525 101.835 16.8391C101.176 17.7092 100.307 18.3907 99.2242 18.8819C98.1582 19.3732 96.9677 19.618 95.6511 19.618V19.6197Z" fill="white"/>
<path d="M77.6349 22.0199V-0.0710449H77.3074V22.0199" fill="white"/>
<path d="M23.9786 5.04016H31.7292V2.44482H21.0654V19.2723H23.9786V11.6898H30.3864V9.0961H23.9786V5.04016ZM42.144 17.2609C42.144 18.0069 42.1915 18.6405 42.2849 19.2723H39.5993C39.5289 18.7794 39.4846 18.2898 39.4584 17.7307C38.7199 18.8522 37.4688 19.5056 35.8018 19.5056C33.3504 19.5056 31.7063 18.0317 31.7063 15.8102L31.7095 15.8069C31.7095 13.774 33.0965 12.4639 35.4808 12.4193L39.4142 12.3481V11.9032C39.4142 11.1572 39.2292 10.5947 38.8607 10.1961C38.4694 9.7743 37.888 9.54272 37.0791 9.54272C35.7379 9.54272 34.9306 10.2226 34.8111 11.4351C34.8111 11.4351 34.8029 11.4996 34.8012 11.6782H31.9339C31.9339 11.569 31.9421 11.4351 31.9421 11.4351C32.1271 8.88603 34.0693 7.34437 37.0758 7.34437C38.6724 7.34437 39.9677 7.73971 40.8258 8.56016C41.6839 9.3773 42.1457 10.4062 42.1457 11.9263V17.2609H42.144ZM39.4126 14.2438L36.3586 14.3596C35.2024 14.4075 34.5769 14.8525 34.5769 15.7623C34.5769 16.7911 35.3646 17.4445 36.5895 17.4445C38.2548 17.4445 39.411 16.323 39.411 14.6871V14.2421H39.4126V14.2438ZM67.4967 13.3919C67.4967 16.725 64.8242 19.4262 61.5245 19.4262C58.2248 19.4262 55.5523 16.725 55.5523 13.3919C55.5523 10.0588 58.2248 7.35761 61.5245 7.35761C64.8242 7.35761 67.4967 10.0588 67.4967 13.3919ZM64.834 13.3919C64.834 11.4913 63.3536 9.95129 61.5245 9.95129C59.6953 9.95129 58.215 11.4913 58.215 13.3919C58.215 15.2925 59.6953 16.8358 61.5245 16.8358C63.3536 16.8358 64.834 15.2958 64.834 13.3919ZM50.0698 7.35761C48.4977 7.35761 47.2254 8.10362 46.5523 9.34422V7.59084H43.8635V19.274H46.6408V12.755C46.6408 10.9802 47.6364 9.81069 49.1626 9.81069C49.8569 9.81069 50.4137 10.0456 50.8051 10.4905C51.2013 10.9123 51.4077 11.5905 51.4077 12.4077V19.2773H54.185V11.9842C54.185 10.4889 53.7445 9.36903 53.0289 8.59655C52.3116 7.82407 51.2947 7.35761 50.0665 7.35761H50.0682H50.0698Z" fill="#012AFF"/>
<path d="M16.7112 17.2493C16.7112 18.3774 15.8056 19.2905 14.6905 19.2905C13.5753 19.2905 12.6697 18.3757 12.6697 17.2493C12.6697 16.1228 13.5753 15.2081 14.6905 15.2081C15.8056 15.2081 16.7112 16.1228 16.7112 17.2493ZM16.7063 4.47936V2.44312H0.0327148V19.2822H2.04527C3.16044 19.2822 4.07748 18.3691 4.07748 17.241V8.55349C4.07748 7.42868 4.96831 6.52883 6.08348 6.52883H14.6905C15.804 6.52883 16.7063 5.60582 16.7063 4.48101V4.47936ZM16.7063 12.793V11.1141C16.7063 9.98763 15.8024 9.07785 14.6905 9.07785H6.59931V17.2476C6.59931 18.3741 7.50324 19.2839 8.61514 19.2839H10.3247V14.8624C10.3247 13.5606 11.3122 12.793 12.6484 12.793H16.7079H16.7063Z" fill="#012AFF"/>
</g>
<defs>
<clipPath id="clip0_909_6670">
<rect width="150" height="22" fill="white"/>
</clipPath>
</defs>
</svg>
