<svg width="150" height="22" viewBox="0 0 150 22" fill="none" xmlns="http://www.w3.org/2000/svg">
<path d="M143.492 19.6181C142.379 19.6181 141.408 19.3568 140.578 18.8341C139.762 18.3114 139.135 17.5835 138.698 16.649C138.259 15.7144 138.039 14.6458 138.039 13.4432C138.039 12.2407 138.259 11.1705 138.698 10.2375C139.136 9.30294 139.772 8.57512 140.602 8.05241C141.432 7.5297 142.413 7.26835 143.541 7.26835C144.278 7.26835 144.96 7.41888 145.587 7.71993C146.229 8.00444 146.738 8.40143 147.115 8.9076V2.3291H149.984V19.4279H147.115V17.9326C146.754 18.4387 146.245 18.8506 145.587 19.1682C144.945 19.4693 144.247 19.6198 143.494 19.6198L143.492 19.6181ZM144.079 17.1005C145.05 17.1005 145.826 16.768 146.406 16.1031C146.985 15.4381 147.275 14.5515 147.275 13.4432C147.275 12.335 146.985 11.4483 146.406 10.7834C145.826 10.1184 145.05 9.78594 144.079 9.78594C143.108 9.78594 142.354 10.1184 141.775 10.7834C141.195 11.4483 140.905 12.335 140.905 13.4432C140.905 14.5515 141.195 15.4381 141.775 16.1031C142.354 16.768 143.122 17.1005 144.079 17.1005Z" fill="white"/>
<path d="M129.198 19.6182C127.865 19.6182 126.793 19.1831 125.977 18.3114C125.178 17.4248 124.778 16.2768 124.778 14.8675V7.45698H127.67V14.2489C127.67 15.0726 127.898 15.7458 128.351 16.2669C128.807 16.7731 129.401 17.0261 130.138 17.0261C130.954 17.0261 131.612 16.7416 132.113 16.171C132.63 15.6003 132.889 14.8725 132.889 13.9858V7.45532H135.758V19.4246H132.889V17.572C132.56 18.2204 132.074 18.7283 131.432 19.0922C130.79 19.4412 130.045 19.6149 129.198 19.6149V19.6182Z" fill="white"/>
<path d="M116.53 19.6181C115.339 19.6181 114.273 19.3567 113.332 18.834C112.392 18.2948 111.655 17.5603 111.121 16.6258C110.589 15.6763 110.322 14.616 110.322 13.4432C110.322 12.2704 110.589 11.2184 111.121 10.2838C111.655 9.33432 112.39 8.59824 113.332 8.07553C114.272 7.53794 115.338 7.26831 116.53 7.26831C117.722 7.26831 118.764 7.53794 119.704 8.07553C120.644 8.59824 121.38 9.33432 121.914 10.2838C122.448 11.2184 122.713 12.2704 122.713 13.4432C122.713 14.616 122.446 15.6763 121.914 16.6258C121.382 17.5603 120.645 18.2964 119.704 18.834C118.764 19.3567 117.706 19.6181 116.53 19.6181ZM116.53 17.1005C117.501 17.1005 118.285 16.7597 118.882 16.0799C119.492 15.3984 119.799 14.52 119.799 13.4432C119.799 12.3664 119.492 11.488 118.882 10.8065C118.285 10.125 117.503 9.7859 116.53 9.7859C115.557 9.7859 114.743 10.1267 114.133 10.8065C113.537 11.4715 113.239 12.3498 113.239 13.4432C113.239 14.5366 113.537 15.3984 114.133 16.0799C114.743 16.7614 115.543 17.1005 116.53 17.1005Z" fill="white"/>
<path d="M105.219 2.3291H108.111V19.4279H105.219V2.3291Z" fill="white"/>
<path d="M95.6184 19.6197C94.0987 19.6197 92.7183 19.3038 91.4803 18.6702C90.2423 18.0218 89.2548 17.0558 88.5179 15.7722C87.781 14.4902 87.4126 12.9453 87.4126 11.1406C87.4126 9.33593 87.781 7.76781 88.5179 6.48586C89.2696 5.2039 90.2652 4.23789 91.5032 3.58781C92.7412 2.93939 94.1135 2.61353 95.6167 2.61353C96.917 2.61353 98.1009 2.85834 99.167 3.34962C100.233 3.84089 101.103 4.52901 101.777 5.41563C102.452 6.28571 102.858 7.28315 103 8.40796H99.7565C99.6304 7.48992 99.1768 6.74556 98.3924 6.17488C97.608 5.6042 96.6681 5.31969 95.5709 5.31969C94.5998 5.31969 93.7286 5.54135 92.9606 5.98465C92.209 6.42796 91.6129 7.08465 91.1741 7.95638C90.7499 8.82646 90.5387 9.88014 90.5387 11.1158C90.5387 12.3514 90.7499 13.4034 91.1741 14.2752C91.6129 15.1304 92.209 15.7788 92.9606 16.2221C93.7286 16.6654 94.6064 16.8871 95.5938 16.8871C96.7074 16.8871 97.6555 16.6025 98.4383 16.0319C99.2374 15.4612 99.6992 14.7251 99.8253 13.8236H102.953C102.843 14.9484 102.458 15.9525 101.802 16.8391C101.143 17.7092 100.274 18.3907 99.1915 18.8819C98.1255 19.3732 96.935 19.618 95.6184 19.618V19.6197Z" fill="white"/>
<path d="M77.6022 22.0199V-0.0710449H77.2747V22.0199" fill="#0E121B"/>
<path d="M23.9459 5.04016H31.6965V2.44482H21.0327V19.2723H23.9459V11.6898H30.3537V9.0961H23.9459V5.04016ZM42.1113 17.2609C42.1113 18.0069 42.1588 18.6405 42.2521 19.2723H39.5666C39.4961 18.7794 39.4519 18.2898 39.4257 17.7307C38.6872 18.8522 37.4361 19.5056 35.7691 19.5056C33.3177 19.5056 31.6735 18.0317 31.6735 15.8102L31.6768 15.8069C31.6768 13.774 33.0638 12.4639 35.4481 12.4193L39.3815 12.3481V11.9032C39.3815 11.1572 39.1965 10.5947 38.828 10.1961C38.4366 9.7743 37.8553 9.54272 37.0464 9.54272C35.7052 9.54272 34.8979 10.2226 34.7783 11.4351C34.7783 11.4351 34.7702 11.4996 34.7685 11.6782H31.9012C31.9012 11.569 31.9094 11.4351 31.9094 11.4351C32.0944 8.88603 34.0365 7.34437 37.0431 7.34437C38.6397 7.34437 39.935 7.73971 40.7931 8.56016C41.6512 9.3773 42.113 10.4062 42.113 11.9263V17.2609H42.1113ZM39.3799 14.2438L36.3258 14.3596C35.1697 14.4075 34.5442 14.8525 34.5442 15.7623C34.5442 16.7911 35.3318 17.4445 36.5567 17.4445C38.2221 17.4445 39.3782 16.323 39.3782 14.6871V14.2421H39.3799V14.2438ZM67.4639 13.3919C67.4639 16.725 64.7915 19.4262 61.4918 19.4262C58.1921 19.4262 55.5196 16.725 55.5196 13.3919C55.5196 10.0588 58.1921 7.35761 61.4918 7.35761C64.7915 7.35761 67.4639 10.0588 67.4639 13.3919ZM64.8013 13.3919C64.8013 11.4913 63.3209 9.95129 61.4918 9.95129C59.6626 9.95129 58.1823 11.4913 58.1823 13.3919C58.1823 15.2925 59.6626 16.8358 61.4918 16.8358C63.3209 16.8358 64.8013 15.2958 64.8013 13.3919ZM50.0371 7.35761C48.465 7.35761 47.1927 8.10362 46.5196 9.34422V7.59084H43.8307V19.274H46.608V12.755C46.608 10.9802 47.6037 9.81069 49.1299 9.81069C49.8242 9.81069 50.381 10.0456 50.7723 10.4905C51.1686 10.9123 51.375 11.5905 51.375 12.4077V19.2773H54.1523V11.9842C54.1523 10.4889 53.7118 9.36903 52.9961 8.59655C52.2789 7.82407 51.262 7.35761 50.0338 7.35761H50.0354H50.0371Z" fill="#012AFF"/>
<path d="M16.6785 17.2493C16.6785 18.3774 15.7729 19.2905 14.6578 19.2905C13.5426 19.2905 12.637 18.3757 12.637 17.2493C12.637 16.1228 13.5426 15.2081 14.6578 15.2081C15.7729 15.2081 16.6785 16.1228 16.6785 17.2493ZM16.6736 4.47936V2.44312H0V19.2822H2.01255C3.12773 19.2822 4.04476 18.3691 4.04476 17.241V8.55349C4.04476 7.42868 4.93559 6.52883 6.05077 6.52883H14.6578C15.7713 6.52883 16.6736 5.60582 16.6736 4.48101V4.47936ZM16.6736 12.793V11.1141C16.6736 9.98763 15.7697 9.07785 14.6578 9.07785H6.56659V17.2476C6.56659 18.3741 7.47052 19.2839 8.58242 19.2839H10.292V14.8624C10.292 13.5606 11.2795 12.793 12.6157 12.793H16.6752H16.6736Z" fill="#012AFF"/>
</svg>
