<svg width="17" height="17" viewBox="0 0 17 17" fill="none" xmlns="http://www.w3.org/2000/svg">
<path d="M16.6785 14.8062C16.6785 15.9343 15.7729 16.8474 14.6578 16.8474C13.5426 16.8474 12.637 15.9326 12.637 14.8062C12.637 13.6797 13.5426 12.765 14.6578 12.765C15.7729 12.765 16.6785 13.6797 16.6785 14.8062ZM16.6736 2.03624V0H0V16.8391H2.01255C3.12773 16.8391 4.04476 15.926 4.04476 14.7979V6.11038C4.04476 4.98556 4.93559 4.08571 6.05077 4.08571H14.6578C15.7713 4.08571 16.6736 3.16271 16.6736 2.03789V2.03624ZM16.6736 10.3499V8.67098C16.6736 7.54451 15.7697 6.63474 14.6578 6.63474H6.56659V14.8045C6.56659 15.931 7.47052 16.8408 8.58242 16.8408H10.292V12.4192C10.292 11.1174 11.2795 10.3499 12.6157 10.3499H16.6752H16.6736Z" fill="#012AFF"/>
</svg>
